<svg width="36" height="36" viewBox="0 0 36 36" fill="none" xmlns="http://www.w3.org/2000/svg">
<g clip-path="url(#clip0)">
<path d="M18.9375 31.6364C18.9375 32.2577 18.4337 32.7614 17.8125 32.7614C17.1911 32.7614 16.6875 32.2577 16.6875 31.6364C16.6875 31.015 17.1911 30.5114 17.8125 30.5114C18.4337 30.5114 18.9375 31.015 18.9375 31.6364Z" fill="#646F75"/>
<path d="M30.1875 0.698853H5.4375C4.50542 0.698853 3.75 1.45449 3.75 2.38635V32.7614C3.75 33.6932 4.50542 34.4489 5.4375 34.4489H30.1875C31.1194 34.4489 31.875 33.6932 31.875 32.7614V2.38635C31.875 1.45449 31.1194 0.698853 30.1875 0.698853ZM30.75 32.7614C30.75 33.072 30.498 33.3239 30.1875 33.3239H5.4375C5.12681 33.3239 4.875 33.072 4.875 32.7614V2.38635C4.875 2.07566 5.12681 1.82385 5.4375 1.82385H30.1875C30.498 1.82385 30.75 2.07566 30.75 2.38635V32.7614Z" fill="#646F75"/>
<path d="M28.5883 3.80914H7.41185C6.82702 3.80914 6.35303 4.29281 6.35303 4.88958V29.1993C6.35303 29.7961 6.82702 30.2797 7.41185 30.2797H28.5883C29.1729 30.2797 29.6471 29.7961 29.6471 29.1993V4.88958C29.6471 4.29281 29.1729 3.80914 28.5883 3.80914ZM7.41185 29.1993V4.88958H28.5883V29.1993H7.41185Z" fill="#646F75"/>
</g>
<defs>
<clipPath id="clip0">
<rect width="36" height="35" fill="white" transform="translate(0 0.573853)"/>
</clipPath>
</defs>
</svg>
