<svg width="36" height="35" viewBox="0 0 36 35" fill="none" xmlns="http://www.w3.org/2000/svg">
<path d="M33.3012 0.473877H2.6988C1.2108 0.473877 0 1.68468 0 3.17328V22.6739V25.3745C0 26.8625 1.2108 28.0739 2.6988 28.0739H13.4124C13.4976 29.1251 13.0416 30.1631 12.1986 30.7571L11.118 31.5191C11.049 31.5671 10.9914 31.6253 10.944 31.6901C10.191 31.7687 9.6 32.4005 9.6 33.1739C9.6 34.0007 10.2726 34.6739 11.1 34.6739H24.9C25.7274 34.6739 26.4 34.0007 26.4 33.1739C26.4 32.4005 25.8096 31.7693 25.0566 31.6895C25.0098 31.6259 24.9528 31.5683 24.8856 31.5209L23.8032 30.7583C22.9596 30.1637 22.503 29.1257 22.5882 28.0739H33.3012C34.7892 28.0739 36 26.8631 36 25.3745V22.6739V3.17328C36 1.68468 34.7892 0.473877 33.3012 0.473877ZM1.2 3.17328C1.2 2.34648 1.8726 1.67388 2.6988 1.67388H33.3012C34.1274 1.67388 34.8 2.34648 34.8 3.17328V21.4739H1.2V3.17328ZM24.9 33.4739H11.1C10.9374 33.4739 10.8 33.3365 10.8 33.1739C10.8 33.0113 10.9374 32.8739 11.1 32.8739H11.5356H24.4644H24.9C25.0626 32.8739 25.2 33.0113 25.2 33.1739C25.2 33.3365 25.0626 33.4739 24.9 33.4739ZM21.3852 28.0751C21.3054 29.4725 21.915 30.8453 23.0226 31.6739H12.9786C14.0862 30.8453 14.6958 29.4719 14.616 28.0739L21.3852 28.0751ZM34.8 25.3745C34.8 26.2013 34.1274 26.8739 33.3012 26.8739H22.8348H13.1658H2.6988C1.8726 26.8739 1.2 26.2013 1.2 25.3745V22.6739H34.8V25.3745Z" fill="#646F75"/>
<path d="M3.00005 6.47387C3.15365 6.47387 3.30725 6.41507 3.42425 6.29807L5.82425 3.89807C6.05885 3.66347 6.05885 3.28427 5.82425 3.04967C5.58965 2.81507 5.21045 2.81507 4.97585 3.04967L2.57585 5.44967C2.34125 5.68427 2.34125 6.06347 2.57585 6.29807C2.69285 6.41507 2.84645 6.47387 3.00005 6.47387Z" fill="#646F75"/>
<path d="M3.00005 9.47388C3.15365 9.47388 3.30725 9.41508 3.42425 9.29808L4.62425 8.09808C4.85885 7.86348 4.85885 7.48428 4.62425 7.24968C4.38965 7.01508 4.01045 7.01508 3.77585 7.24968L2.57585 8.44968C2.34125 8.68428 2.34125 9.06348 2.57585 9.29808C2.69285 9.41508 2.84645 9.47388 3.00005 9.47388Z" fill="#646F75"/>
<path d="M4.97405 6.04785C4.86545 6.16185 4.80005 6.31785 4.80005 6.47385C4.80005 6.62985 4.86545 6.78585 4.97405 6.89985C5.08745 7.00785 5.23745 7.07385 5.40005 7.07385C5.55605 7.07385 5.71205 7.00785 5.82605 6.89985C5.93405 6.78585 6.00005 6.62985 6.00005 6.47385C6.00005 6.31785 5.93405 6.16185 5.82605 6.04785C5.59805 5.82585 5.20205 5.82585 4.97405 6.04785Z" fill="#646F75"/>
<path d="M6.17583 5.69807C6.29283 5.81507 6.44643 5.87387 6.60003 5.87387C6.75363 5.87387 6.90723 5.81507 7.02423 5.69807L8.82423 3.89807C9.05883 3.66347 9.05883 3.28427 8.82423 3.04967C8.58963 2.81507 8.21043 2.81507 7.97583 3.04967L6.17583 4.84967C5.94123 5.08427 5.94123 5.46347 6.17583 5.69807Z" fill="#646F75"/>
<path d="M7.97585 6.04967L2.57585 11.4497C2.34125 11.6843 2.34125 12.0635 2.57585 12.2981C2.69285 12.4151 2.84645 12.4739 3.00005 12.4739C3.15365 12.4739 3.30725 12.4151 3.42425 12.2981L8.82425 6.89807C9.05885 6.66347 9.05885 6.28427 8.82425 6.04967C8.58965 5.81507 8.21045 5.81507 7.97585 6.04967Z" fill="#646F75"/>
<path d="M9.174 4.8479C9.0654 4.9619 9 5.1119 9 5.2739C9 5.4359 9.0654 5.5859 9.174 5.6999C9.2874 5.8079 9.4374 5.8739 9.6 5.8739C9.762 5.8739 9.912 5.8079 10.026 5.6999C10.134 5.5859 10.2 5.4359 10.2 5.2739C10.2 5.1119 10.134 4.9619 10.026 4.8479C9.804 4.6259 9.396 4.6259 9.174 4.8479Z" fill="#646F75"/>
<path d="M10.9758 3.04967L10.3758 3.64967C10.1412 3.88427 10.1412 4.26347 10.3758 4.49807C10.4928 4.61507 10.6464 4.67387 10.8 4.67387C10.9536 4.67387 11.1072 4.61507 11.2242 4.49807L11.8242 3.89807C12.0588 3.66347 12.0588 3.28427 11.8242 3.04967C11.5896 2.81507 11.2104 2.81507 10.9758 3.04967Z" fill="#646F75"/>
</svg>
