<svg width="22" height="35" viewBox="0 0 22 35" fill="none" xmlns="http://www.w3.org/2000/svg">
<path d="M19.798 0.573853H2.2023C1.01534 0.573853 0.0498047 1.53946 0.0498047 2.72642V32.4214C0.0498047 33.6082 1.01542 34.5739 2.20237 34.5739H19.798C20.9849 34.5739 21.9505 33.6083 21.9505 32.4214V2.72642C21.9505 1.53946 20.9849 0.573853 19.798 0.573853ZM1.12846 5.9841H20.8719V28.4695H1.12846V5.9841ZM2.2023 1.65251H19.798C20.3901 1.65251 20.8719 2.13423 20.8719 2.72642V5.265H1.12846V2.72642C1.12846 2.13423 1.61019 1.65251 2.2023 1.65251ZM19.798 33.4952H2.2023C1.61019 33.4952 1.12839 33.0135 1.12839 32.4213V29.1886H20.8718V32.4213C20.8718 33.0135 20.3901 33.4952 19.798 33.4952Z" fill="#646F75"/>
<path d="M11.0003 29.6653C10.0263 29.6653 9.23389 30.4577 9.23389 31.4318C9.23389 32.4058 10.0263 33.1982 11.0003 33.1982C11.9742 33.1982 12.7667 32.4057 12.7667 31.4318C12.7667 30.4578 11.9743 29.6653 11.0003 29.6653ZM11.0003 32.4791C10.4228 32.4791 9.95299 32.0092 9.95299 31.4318C9.95299 30.8542 10.4228 30.3844 11.0003 30.3844C11.5778 30.3844 12.0476 30.8542 12.0476 31.4318C12.0476 32.0092 11.5778 32.4791 11.0003 32.4791Z" fill="#646F75"/>
<path d="M8.55511 4.00005H13.445C13.6436 4.00005 13.8046 3.83904 13.8046 3.6405C13.8046 3.44195 13.6436 3.28094 13.445 3.28094H8.55511C8.35649 3.28094 8.19556 3.44195 8.19556 3.6405C8.19556 3.83904 8.35649 4.00005 8.55511 4.00005Z" fill="#646F75"/>
<path d="M7.26092 4.00005C7.35512 4.00005 7.44789 3.96194 7.51476 3.89506C7.58164 3.82746 7.62047 3.73542 7.62047 3.6405C7.62047 3.54557 7.58164 3.45353 7.51476 3.38593C7.44781 3.31906 7.35505 3.28094 7.26092 3.28094C7.166 3.28094 7.07388 3.31906 7.00636 3.38593C6.93948 3.45281 6.90137 3.54557 6.90137 3.6405C6.90137 3.73542 6.93948 3.82746 7.00636 3.89506C7.07323 3.96194 7.166 4.00005 7.26092 4.00005Z" fill="#646F75"/>
</svg>
